{"title":"[MARATHI] Meech Tumchi Aishwarya - Natak x264 MP3 [TMB]","uid":8564914,"size":235528596,"categoryP":"video","categoryS":"movies","magnet":"?xt=urn:btih:c8edec44d2a1c097de5b2bb521de19e1c31b2aaa&amp;dn=%5BMARATHI%5D+Meech+Tumchi+Aishwarya+-+Natak+x264+MP3+%5BTMB%5D&amp;tr=udp%3A%2F%2Ftracker.openbittorrent.com%3A80&amp;tr=udp%3A%2F%2Fopen.demonii.com%3A1337&amp;tr=udp%3A%2F%2Ftracker.coppersurfer.tk%3A6969&amp;tr=udp%3A%2F%2Fexodus.desync.com%3A6969","seeders":0,"leechers":1,"uploader":"SJonam","files":1,"time":1370976891,"description":" &lt;a href=&quot;\nhttp://desibbrg.org/images/19633974814634281511.png&quot; rel=&quot;nofollow&quot; target=&quot;_NEW&quot;&gt;\nhttp://desibbrg.org/images/19633974814634281511.png&lt;/a&gt; &lt;a href=&quot;\nhttp://desibbrg.org/images/31240396721671887495.png&quot; rel=&quot;nofollow&quot; target=&quot;_NEW&quot;&gt;\nhttp://desibbrg.org/images/31240396721671887495.png&lt;/a&gt; &lt;a href=&quot;\nhttp://desibbrg.org/images/40423116618641346408.png&quot; rel=&quot;nofollow&quot; target=&quot;_NEW&quot;&gt;\nhttp://desibbrg.org/images/40423116618641346408.png&lt;/a&gt; &lt;a href=&quot;\nhttp://desibbrg.org/images/18989189804862465825.png&quot; rel=&quot;nofollow&quot; target=&quot;_NEW&quot;&gt;\nhttp://desibbrg.org/images/18989189804862465825.png&lt;/a&gt; &lt;a href=&quot;\nhttp://desibbrg.org/images/45620189334189637266.png&quot; rel=&quot;nofollow&quot; target=&quot;_NEW&quot;&gt;\nhttp://desibbrg.org/images/45620189334189637266.png&lt;/a&gt;\n\n\nGeneral\nComplete name                  : Meech Tumchi Aishwarya - Marathi Natak x264 MP3 [TMB].avi\nFormat                         : AVI\nFormat/Info                    : Audio Video Interleave\nFile size                      : 225 MiB\nDuration                       : 1h 1mn\nOverall bit rate               : 514 Kbps\nWriting application            : Lavf54.63.104\n\nVideo\nID                             : 0\nFormat                         : AVC\nFormat/Info                    : Advanced Video Codec\nFormat profile                 : &lt;a class=&quot;__cf_email__&quot; href=&quot;/cdn-cgi/l/email-protection&quot; data-cfemail=&quot;a6eecfc1cee6ea948897&quot;&gt;[email&amp;#160;protected]&lt;/a&gt;&lt;script cf-hash='f9e31' type=&quot;text/javascript&quot;&gt;\n/* &lt;![CDATA[ */!function(){try{var t=&quot;currentScript&quot;in document?document.currentScript:function(){for(var t=document.getElementsByTagName(&quot;script&quot;),e=t.length;e--;)if(t[e].getAttribute(&quot;cf-hash&quot;))return t[e]}();if(t&amp;&amp;t.previousSibling){var e,r,n,i,c=t.previousSibling,a=c.getAttribute(&quot;data-cfemail&quot;);if(a){for(e=&quot;&quot;,r=parseInt(a.substr(0,2),16),n=2;a.length-n;n+=2)i=parseInt(a.substr(n,2),16)^r,e+=String.fromCharCode(i);e=document.createTextNode(e),c.parentNode.replaceChild(e,c)}}}catch(u){}}();/* ]]&gt; */&lt;/script&gt;\nFormat settings, CABAC         : Yes\nFormat settings, ReFrames      : 1 frame\nCodec ID                       : H264\nDuration                       : 1h 1mn\nBit rate                       : 246 Kbps\nWidth                          : 480 pixels\nHeight                         : 360 pixels\nDisplay aspect ratio           : 4:3\nFrame rate mode                : Variable\nFrame rate                     : 25.000 fps\nColor space                    : YUV\nChroma subsampling             : 4:2:0\nBit depth                      : 8 bits\nScan type                      : Progressive\nBits/(Pixel*Frame)             : 0.057\nStream size                    : 107 MiB (48%)\nWriting library                : x264 core 129\n\nAudio\nID                             : 1\nFormat                         : MPEG Audio\nFormat version                 : Version 1\nFormat profile                 : Layer 3\nMode                           : Joint stereo\nMode extension                 : MS Stereo\nCodec ID                       : 55\nCodec ID/Hint                  : MP3\nDuration                       : 1h 1mn\nBit rate mode                  : Constant\nBit rate                       : 256 Kbps\nChannel(s)                     : 2 channels\nSampling rate                  : 44.1 KHz\nCompression mode               : Lossy\nStream size                    : 112 MiB (50%)\nAlignment                      : Aligned on interleaves\nInterleave, duration           : 26 ms (0.65 video frame)\nWriting library                : LAME3.99.5\n\nRipper : Manojvb\n\nSeeding 24x7... Extreme Seeding...\n\n\n","torrent":{"xt":"urn:btih:c8edec44d2a1c097de5b2bb521de19e1c31b2aaa","amp;dn":"%5BMARATHI%5D+Meech+Tumchi+Aishwarya+-+Natak+x264+MP3+%5BTMB%5D","amp;tr":["udp%3A%2F%2Ftracker.openbittorrent.com%3A80","udp%3A%2F%2Fopen.demonii.com%3A1337","udp%3A%2F%2Ftracker.coppersurfer.tk%3A6969","udp%3A%2F%2Fexodus.desync.com%3A6969"],"infoHash":"c8edec44d2a1c097de5b2bb521de19e1c31b2aaa","infoHashBuffer":{"type":"Buffer","data":[200,237,236,68,210,161,192,151,222,91,43,181,33,222,25,225,195,27,42,170]},"announce":[],"urlList":[]}}